<svg width="168" height="45" viewBox="0 0 168 45" fill="none" xmlns="http://www.w3.org/2000/svg">
<path d="M4.644 36C4.212 36 3.852 35.856 3.564 35.568C3.3 35.28 3.168 34.932 3.168 34.524V12.24C3.168 11.832 3.3 11.496 3.564 11.232C3.852 10.944 4.2 10.8 4.608 10.8H17.244C17.652 10.8 18 10.932 18.288 11.196C18.576 11.46 18.72 11.796 18.72 12.204C18.72 12.588 18.576 12.912 18.288 13.176C18 13.44 17.652 13.572 17.244 13.572H5.904L6.12 13.284V22.104L5.94 21.708H15.624C16.032 21.708 16.38 21.852 16.668 22.14C16.956 22.404 17.1 22.74 17.1 23.148C17.1 23.508 16.956 23.832 16.668 24.12C16.38 24.384 16.032 24.516 15.624 24.516H5.868L6.12 24.192V34.524C6.12 34.932 5.976 35.28 5.688 35.568C5.4 35.856 5.052 36 4.644 36ZM26.5115 34.524C26.5115 34.932 26.3555 35.28 26.0435 35.568C25.7555 35.856 25.4075 36 24.9995 36C24.5435 36 24.1835 35.856 23.9195 35.568C23.6555 35.28 23.5235 34.932 23.5235 34.524V12.276C23.5235 11.844 23.6675 11.496 23.9555 11.232C24.2435 10.944 24.6035 10.8 25.0355 10.8C25.4435 10.8 25.7915 10.944 26.0795 11.232C26.3675 11.496 26.5115 11.844 26.5115 12.276V34.524ZM46.7359 33.156C47.1439 33.156 47.4919 33.3 47.7799 33.588C48.0679 33.852 48.2119 34.188 48.2119 34.596C48.2119 35.004 48.0679 35.34 47.7799 35.604C47.4919 35.868 47.1439 36 46.7359 36H34.2799C33.8719 36 33.5239 35.856 33.2359 35.568C32.9719 35.28 32.8399 34.932 32.8399 34.524V12.24C32.8399 11.832 32.9839 11.496 33.2719 11.232C33.5599 10.944 33.9199 10.8 34.3519 10.8C34.7599 10.8 35.1079 10.944 35.3959 11.232C35.6839 11.496 35.8279 11.832 35.8279 12.24V33.804L35.1079 33.156H46.7359ZM53.8276 10.764C54.0436 10.764 54.2716 10.824 54.5116 10.944C54.7756 11.064 54.9796 11.22 55.1236 11.412L64.6636 25.848L63.4036 25.812L73.0516 11.412C73.3636 10.956 73.7716 10.74 74.2756 10.764C74.6596 10.788 74.9956 10.932 75.2836 11.196C75.5716 11.46 75.7156 11.808 75.7156 12.24V34.524C75.7156 34.932 75.5716 35.28 75.2836 35.568C74.9956 35.856 74.6356 36 74.2036 36C73.7716 36 73.4116 35.856 73.1236 35.568C72.8356 35.28 72.6916 34.932 72.6916 34.524V14.976L73.5916 15.156L65.0956 28.08C64.9516 28.248 64.7716 28.392 64.5556 28.512C64.3636 28.632 64.1596 28.692 63.9436 28.692C63.7276 28.692 63.5116 28.632 63.2956 28.512C63.0796 28.392 62.8996 28.248 62.7556 28.08L54.3676 15.156L55.1236 14.22V34.524C55.1236 34.932 54.9916 35.28 54.7276 35.568C54.4636 35.856 54.1276 36 53.7196 36C53.3116 36 52.9756 35.856 52.7116 35.568C52.4716 35.28 52.3516 34.932 52.3516 34.524V12.24C52.3516 11.856 52.4836 11.52 52.7476 11.232C53.0356 10.92 53.3956 10.764 53.8276 10.764ZM90.7355 14.544L82.2755 35.136C82.1795 35.424 82.0115 35.652 81.7715 35.82C81.5315 35.988 81.2795 36.072 81.0155 36.072C80.5595 36.072 80.2235 35.952 80.0075 35.712C79.7915 35.472 79.6835 35.184 79.6835 34.848C79.6595 34.68 79.6835 34.5 79.7555 34.308L89.0795 11.628C89.1995 11.292 89.3795 11.052 89.6195 10.908C89.8835 10.74 90.1715 10.668 90.4835 10.692C90.7955 10.692 91.0715 10.776 91.3115 10.944C91.5755 11.112 91.7555 11.34 91.8515 11.628L101.139 34.092C101.211 34.284 101.247 34.476 101.247 34.668C101.247 35.1 101.103 35.448 100.815 35.712C100.527 35.952 100.203 36.072 99.8435 36.072C99.5555 36.072 99.2915 35.988 99.0515 35.82C98.8115 35.652 98.6315 35.412 98.5115 35.1L89.9435 14.508L90.7355 14.544ZM84.0755 29.268L85.2995 26.46H95.9915L96.5315 29.268H84.0755ZM106.847 36C106.391 36 105.995 35.856 105.659 35.568C105.347 35.28 105.191 34.932 105.191 34.524V12.24C105.191 11.832 105.323 11.496 105.587 11.232C105.875 10.944 106.223 10.8 106.631 10.8H116.567C117.911 10.8 119.123 11.112 120.203 11.736C121.283 12.336 122.135 13.176 122.759 14.256C123.407 15.312 123.731 16.536 123.731 17.928C123.731 18.936 123.539 19.884 123.155 20.772C122.771 21.636 122.243 22.392 121.571 23.04C120.899 23.664 120.131 24.144 119.267 24.48L118.475 23.904C119.291 24.096 120.023 24.444 120.671 24.948C121.319 25.428 121.847 26.052 122.255 26.82C122.663 27.564 122.879 28.44 122.903 29.448C122.951 30.336 123.011 31.044 123.083 31.572C123.155 32.1 123.263 32.52 123.407 32.832C123.551 33.12 123.755 33.348 124.019 33.516C124.355 33.732 124.571 34.02 124.667 34.38C124.787 34.74 124.727 35.088 124.487 35.424C124.343 35.64 124.139 35.796 123.875 35.892C123.611 35.964 123.347 35.988 123.083 35.964C122.819 35.94 122.591 35.868 122.399 35.748C122.015 35.532 121.643 35.22 121.283 34.812C120.923 34.38 120.623 33.768 120.383 32.976C120.143 32.184 120.023 31.104 120.023 29.736C120.023 28.968 119.903 28.332 119.663 27.828C119.423 27.324 119.099 26.916 118.691 26.604C118.283 26.292 117.827 26.076 117.323 25.956C116.819 25.836 116.303 25.776 115.775 25.776H107.747L108.179 25.128V34.524C108.179 34.932 108.059 35.28 107.819 35.568C107.579 35.856 107.255 36 106.847 36ZM107.747 23.184H116.567C117.263 23.136 117.911 22.896 118.511 22.464C119.135 22.032 119.639 21.432 120.023 20.664C120.431 19.872 120.635 18.984 120.635 18C120.635 16.728 120.227 15.672 119.411 14.832C118.619 13.992 117.611 13.572 116.387 13.572H107.891L108.179 12.888V23.832L107.747 23.184ZM132.508 34.524C132.508 34.932 132.352 35.28 132.04 35.568C131.752 35.856 131.404 36 130.996 36C130.54 36 130.18 35.856 129.916 35.568C129.652 35.28 129.52 34.932 129.52 34.524V12.276C129.52 11.844 129.664 11.496 129.952 11.232C130.24 10.944 130.6 10.8 131.032 10.8C131.44 10.8 131.788 10.944 132.076 11.232C132.364 11.496 132.508 11.844 132.508 12.276V34.524ZM147.548 14.544L139.088 35.136C138.992 35.424 138.824 35.652 138.584 35.82C138.344 35.988 138.092 36.072 137.828 36.072C137.372 36.072 137.036 35.952 136.82 35.712C136.604 35.472 136.496 35.184 136.496 34.848C136.472 34.68 136.496 34.5 136.568 34.308L145.892 11.628C146.012 11.292 146.192 11.052 146.432 10.908C146.696 10.74 146.984 10.668 147.296 10.692C147.608 10.692 147.884 10.776 148.124 10.944C148.388 11.112 148.568 11.34 148.664 11.628L157.952 34.092C158.024 34.284 158.06 34.476 158.06 34.668C158.06 35.1 157.916 35.448 157.628 35.712C157.34 35.952 157.016 36.072 156.656 36.072C156.368 36.072 156.104 35.988 155.864 35.82C155.624 35.652 155.444 35.412 155.324 35.1L146.756 14.508L147.548 14.544ZM140.888 29.268L142.112 26.46H152.804L153.344 29.268H140.888Z" fill="white"/>
</svg>
